<svg width="39" height="39" viewBox="0 0 39 39" fill="none" xmlns="http://www.w3.org/2000/svg"><g clip-path="url(#a)" fill="#004FC6"><path d="M6.87 17.233h11.448V9.218H6.869v8.015zm2.289-5.725h6.87v3.435h-6.87v-3.435zM14.5 21.465l-1.808-1.405-3.053 3.925 2.701 2.025-2.008 2.761 1.852 1.347 3.335-4.586-2.642-1.981 1.622-2.086z"/><path d="M29.47 10.975a3.53 3.53 0 0 0 2.499 1.03c.909 0 1.818-.346 2.509-1.04l3.357-3.37-.783-.78L39 4.858l-1.622-1.616-1.948 1.955-1.617-1.61 1.949-1.957L34.139.015 32.19 1.972 31.104.89 27.746 4.26a3.545 3.545 0 0 0 .01 5.009l.023.023c-1.59 1.967-2.15 4.14-1.666 6.476.417 2.007 1.482 3.69 2.631 5.382.612.9 2.523 3.854 4.02 6.173a2.364 2.364 0 0 1-.567 3.162 2.345 2.345 0 0 1-2.002.396 2.345 2.345 0 0 1-1.56-1.314l-.075-.165a7.06 7.06 0 0 0-5.663-4.113V7.702a3.066 3.066 0 0 0-3.063-3.063H5.353A3.066 3.066 0 0 0 2.29 7.702v24.414H0v6.87h25.187v-6.87h-2.29V27.6a4.766 4.766 0 0 1 3.576 2.743l.074.164a4.623 4.623 0 0 0 3.077 2.593 4.623 4.623 0 0 0 3.947-.782 4.662 4.662 0 0 0 1.117-6.235c-1.503-2.33-3.425-5.3-4.05-6.22-1.014-1.492-1.952-2.964-2.283-4.56-.33-1.595.006-3.01 1.056-4.385l.058.058zm-6.572 25.72H2.29v-2.289h20.608v2.29zM4.579 32.117V7.702c0-.426.347-.773.774-.773h14.482c.426 0 .773.347.773.773v24.414H4.579zm24.79-26.24l1.74-1.749 3.488 3.474-1.741 1.748c-.488.49-1.282.49-1.77.004l-1.714-1.707a1.253 1.253 0 0 1-.004-1.77z"/></g><defs><clipPath id="a"><path fill="#fff" d="M0 0h39v39H0z"/></clipPath></defs></svg>