<svg width="40" height="40" viewBox="0 0 40 40" fill="none" xmlns="http://www.w3.org/2000/svg"><path d="M36.268 26.02l-3.768-.904c-.86-.207-1.73-.373-2.605-.5l-5.074-6.203a6.342 6.342 0 0 0-4.927-2.335h-4.467a7.702 7.702 0 0 0-6.59 3.672l-1.932 3.12a3.029 3.029 0 0 1-2.591 1.444 4.768 4.768 0 0 0-1.938.649C2.838 15.399 10.47 7.687 20 7.097v.363a4.31 4.31 0 0 0 4.304 4.305h5.892V9.412h3.922V7.059h-3.922V4.706h3.922V2.353h-3.922V0h-5.892A4.31 4.31 0 0 0 20 4.304v.435a21.021 21.021 0 0 0-13.798 6.17C2.202 14.907 0 20.225 0 25.881v7.208l3.486 2.988h1.358A5.106 5.106 0 0 0 9.804 40a5.106 5.106 0 0 0 4.96-3.922h8.14A5.106 5.106 0 0 0 27.864 40a5.106 5.106 0 0 0 4.959-3.922h4.59L40 32.975v-2.222a4.853 4.853 0 0 0-3.732-4.733zM22.353 4.304c0-1.076.875-1.951 1.951-1.951h3.54v7.059h-3.54a1.954 1.954 0 0 1-1.951-1.952V4.304zm.646 15.6l3.62 4.424c-.298-.01-.597-.014-.896-.014h-9.645V18.43h3.816c1.208 0 2.34.537 3.106 1.472zM8.906 24.108l1.932-3.121a5.366 5.366 0 0 1 2.888-2.285v5.61H8.771c.046-.066.091-.134.134-.204zm.899 13.538a2.748 2.748 0 0 1-2.745-2.745 2.748 2.748 0 0 1 2.745-2.745 2.748 2.748 0 0 1 2.745 2.745 2.748 2.748 0 0 1-2.745 2.745zm18.06 0a2.748 2.748 0 0 1-2.746-2.745 2.748 2.748 0 0 1 2.745-2.745 2.748 2.748 0 0 1 2.745 2.745 2.748 2.748 0 0 1-2.745 2.745zm9.783-5.524l-1.335 1.602h-3.49a5.106 5.106 0 0 0-4.959-3.921 5.106 5.106 0 0 0-4.96 3.921h-8.14a5.106 5.106 0 0 0-4.96-3.921 5.106 5.106 0 0 0-4.959 3.921h-.487l-2.004-1.717v-2.92a2.424 2.424 0 0 1 2.422-2.421h20.948c2.095 0 4.19.248 6.228.736l3.768.905a2.507 2.507 0 0 1 1.928 2.445v1.37z" fill="#004FC6"/></svg>