<svg width="37" height="37" viewBox="0 0 37 37" fill="none" xmlns="http://www.w3.org/2000/svg"><g clip-path="url(#a)" fill="#004FC6"><path d="M30.587 19.6a3.303 3.303 0 0 0 3.115 2.213A3.302 3.302 0 0 0 37 18.515a3.302 3.302 0 0 0-3.298-3.298 3.303 3.303 0 0 0-3.114 2.214h-4.816v-2.09h3.437l2.16-3.655a3.288 3.288 0 0 0 2.333.968A3.302 3.302 0 0 0 37 9.355a3.302 3.302 0 0 0-3.298-3.298 3.303 3.303 0 0 0-3.282 2.975l-2.448 4.14h-2.2v-1.978h-1.963V9.028l4.157-2.448a3.303 3.303 0 0 0 2.976-3.283A3.302 3.302 0 0 0 27.644 0a3.302 3.302 0 0 0-3.299 3.298c0 .909.37 1.733.966 2.33l-3.67 2.162v3.405h-2.04V6.412a3.303 3.303 0 0 0 2.213-3.115A3.302 3.302 0 0 0 18.516 0a3.302 3.302 0 0 0-3.298 3.298c0 1.44.926 2.665 2.214 3.115v4.782h-2.081V7.789l-3.663-2.16a3.288 3.288 0 0 0 .967-2.332A3.302 3.302 0 0 0 9.356 0a3.302 3.302 0 0 0-3.298 3.298c0 1.71 1.308 3.12 2.975 3.282l4.15 2.448v2.167h-1.955v1.979h-2.2L6.58 9.032a3.303 3.303 0 0 0-3.283-2.975A3.302 3.302 0 0 0 0 9.355a3.302 3.302 0 0 0 3.298 3.299c.91 0 1.735-.37 2.332-.968l2.16 3.655h3.438V17.4H6.412a3.303 3.303 0 0 0-3.114-2.214A3.302 3.302 0 0 0 0 18.483a3.302 3.302 0 0 0 3.298 3.298 3.303 3.303 0 0 0 3.114-2.214h4.816v2.065H7.79l-2.162 3.677a3.287 3.287 0 0 0-2.329-.965A3.302 3.302 0 0 0 0 27.643a3.302 3.302 0 0 0 3.298 3.298c1.71 0 3.12-1.308 3.283-2.976L9.029 23.8h2.2v1.937h1.954v2.234l-4.15 2.448A3.302 3.302 0 0 0 6.058 33.7a3.302 3.302 0 0 0 3.298 3.298 3.302 3.302 0 0 0 3.299-3.298c0-.91-.37-1.734-.967-2.331l3.662-2.161v-3.472h2.05v4.85a3.303 3.303 0 0 0-2.214 3.114 3.302 3.302 0 0 0 3.298 3.298 3.302 3.302 0 0 0 3.298-3.298 3.303 3.303 0 0 0-2.214-3.114v-4.85h2.073v3.473l3.67 2.161a3.288 3.288 0 0 0-.966 2.33 3.302 3.302 0 0 0 3.299 3.298 3.302 3.302 0 0 0 3.298-3.298c0-1.71-1.308-3.12-2.976-3.282L23.81 27.97v-2.233h1.963V23.8h2.199l2.448 4.165a3.303 3.303 0 0 0 3.283 2.976A3.302 3.302 0 0 0 37 27.643a3.302 3.302 0 0 0-3.298-3.299c-.908 0-1.732.37-2.329.965l-2.162-3.677h-3.44v-2.033h4.816zm3.115-2.215c.623 0 1.13.507 1.13 1.13 0 .623-.507 1.13-1.13 1.13a1.131 1.131 0 0 1 0-2.26zm0-9.16c.623 0 1.13.507 1.13 1.13a1.131 1.131 0 0 1-2.26 0c0-.623.507-1.13 1.13-1.13zm-6.058-6.058a1.131 1.131 0 0 1 0 2.26c-.623 0-1.13-.507-1.13-1.13 0-.623.507-1.13 1.13-1.13zm-9.128 0c.623 0 1.13.507 1.13 1.13 0 .623-.507 1.13-1.13 1.13a1.131 1.131 0 0 1 0-2.26zm-10.29 1.13a1.131 1.131 0 0 1 2.26 0c0 .623-.506 1.13-1.13 1.13-.623 0-1.13-.507-1.13-1.13zm-4.928 7.189c-.623 0-1.13-.507-1.13-1.13 0-.624.507-1.13 1.13-1.13.623 0 1.13.506 1.13 1.13 0 .623-.507 1.13-1.13 1.13zm0 9.127c-.623 0-1.13-.507-1.13-1.13 0-.623.507-1.13 1.13-1.13a1.131 1.131 0 0 1 0 2.26zm0 9.16a1.131 1.131 0 0 1 0-2.26c.623 0 1.13.507 1.13 1.13 0 .623-.507 1.13-1.13 1.13zm6.058 6.058c-.623 0-1.13-.507-1.13-1.13a1.131 1.131 0 0 1 2.26 0c0 .623-.507 1.13-1.13 1.13zm9.128 0c-.623 0-1.13-.507-1.13-1.13a1.131 1.131 0 0 1 2.26 0c0 .623-.507 1.13-1.13 1.13zm10.29-1.13a1.131 1.131 0 0 1-2.26 0c0-.623.506-1.13 1.13-1.13.623 0 1.13.507 1.13 1.13zm4.928-7.188c.623 0 1.13.507 1.13 1.13 0 .623-.507 1.13-1.13 1.13a1.131 1.131 0 0 1 0-2.26zm-10.098-2.944H13.396V13.362h10.208v10.207z"/><path d="M21.484 15.482h-5.968v5.969h5.968v-5.969zm-2.168 3.8h-1.632V17.65h1.632v1.633z"/></g><defs><clipPath id="a"><path fill="#fff" d="M0 0h37v37H0z"/></clipPath></defs></svg>