<svg width="34" height="34" viewBox="0 0 34 34" fill="none" xmlns="http://www.w3.org/2000/svg"><g clip-path="url(#a)" fill="#004FC6"><path d="M24.566 18.627L22.3 20.893l-2.268-2.269 5.442-5.442a6.709 6.709 0 0 0 8.063-8.907l-.555-1.417L29.42 6.42l-1.438-.385-.386-1.439 3.562-3.562L29.741.48a6.71 6.71 0 0 0-8.907 8.063l-5.442 5.443-7.308-7.308 1.939-1.94L4.013.002 0 4.014l4.737 6.01 1.939-1.94 7.308 7.309-4.804 4.804a7.032 7.032 0 0 0-7.095 1.75 7.014 7.014 0 0 0-2.069 4.992c0 1.886.735 3.66 2.069 4.993a7.039 7.039 0 0 0 4.992 2.065 7.039 7.039 0 0 0 4.993-2.065 7.032 7.032 0 0 0 1.75-7.095l4.804-4.805 2.268 2.269-2.266 2.266 8.203 8.203A4.172 4.172 0 0 0 29.8 34a4.173 4.173 0 0 0 2.97-1.23 4.205 4.205 0 0 0 0-5.94l-8.203-8.203zM2.659 4.17L4.17 2.66l2.86 2.254-2.116 2.117-2.255-2.86zm20.48 4.884l-.238-.607a4.72 4.72 0 0 1 4.468-6.44l-1.994 1.993.98 3.66 3.66.98 1.993-1.993a4.717 4.717 0 0 1-6.44 4.468l-.606-.238-6.338 6.338-1.824-1.823 6.338-6.338zM11.488 24.35l.26.617a5.052 5.052 0 0 1-1.087 5.556 5.053 5.053 0 0 1-3.585 1.482 5.055 5.055 0 0 1-3.585-1.482 5.036 5.036 0 0 1-1.484-3.585c0-1.354.527-2.627 1.484-3.585a5.053 5.053 0 0 1 5.556-1.087l.617.26 5.727-5.726 1.824 1.823-5.727 5.727zm13.077-2.908l1.824 1.823-3.124 3.124-1.824-1.823 3.124-3.124zm6.795 9.919a2.194 2.194 0 0 1-1.562.647c-.59 0-1.145-.23-1.562-.647l-3.563-3.564 3.123-3.124 3.564 3.564a2.211 2.211 0 0 1 0 3.124z"/><path d="M7.077 23.658c-.876 0-1.7.341-2.32.961a3.26 3.26 0 0 0-.96 2.32c0 .876.34 1.7.96 2.32.62.62 1.444.96 2.32.96.876 0 1.7-.34 2.32-.96a3.285 3.285 0 0 0 0-4.64 3.26 3.26 0 0 0-2.32-.96zm.912 4.193a1.281 1.281 0 0 1-.912.377c-.344 0-.668-.134-.912-.377a1.281 1.281 0 0 1-.377-.912c0-.345.134-.668.377-.912.244-.244.568-.378.912-.378a1.291 1.291 0 0 1 .912 2.201z"/></g><defs><clipPath id="a"><path fill="#fff" d="M0 0h34v34H0z"/></clipPath></defs></svg>